<svg version="1.2" xmlns="http://www.w3.org/2000/svg" viewBox="0 0 4000 4000" width="2000" height="2000">
	<title>extended_may_1_04-ai</title>
	<defs>
		<linearGradient id="g1" x2="1" gradientUnits="userSpaceOnUse" gradientTransform="matrix(15.726,162.504,-177.177,17.146,1738.961,3388.522)">
			<stop offset="0" stop-color="#e5d9c7"/>
			<stop offset="1" stop-color="#ffffff"/>
		</linearGradient>
		<linearGradient id="g2" x2="1" gradientUnits="userSpaceOnUse" gradientTransform="matrix(25.323,496.332,-452.982,23.111,2031.231,2965.255)">
			<stop offset="0" stop-color="#e5d9c7"/>
			<stop offset="1" stop-color="#ffffff"/>
		</linearGradient>
		<linearGradient id="g3" x2="1" gradientUnits="userSpaceOnUse" gradientTransform="matrix(-780.788,620.55,-318.66,-400.943,840.595,1636.778)">
			<stop offset="0" stop-color="#e5d9c7"/>
			<stop offset="1" stop-color="#ffffff"/>
		</linearGradient>
		<linearGradient id="g4" x2="1" gradientUnits="userSpaceOnUse" gradientTransform="matrix(50.819,996.057,-511.487,26.096,3187.155,2701.862)">
			<stop offset="0" stop-color="#e5d9c7"/>
			<stop offset="1" stop-color="#ffffff"/>
		</linearGradient>
		<linearGradient id="g5" x2="1" gradientUnits="userSpaceOnUse" gradientTransform="matrix(38.277,-890.989,1021.238,43.872,1115.662,2011.811)">
			<stop offset="0" stop-color="#ede3d3"/>
			<stop offset="1" stop-color="#ffffff"/>
		</linearGradient>
		<linearGradient id="g6" x2="1" gradientUnits="userSpaceOnUse" gradientTransform="matrix(22.504,-523.84,1129.821,48.537,2540.096,2291.813)">
			<stop offset="0" stop-color="#ede3d3"/>
			<stop offset="1" stop-color="#ffffff"/>
		</linearGradient>
		<linearGradient id="g7" x2="1" gradientUnits="userSpaceOnUse" gradientTransform="matrix(180.034,-679.485,750.566,198.867,1210.901,2656.191)">
			<stop offset="0" stop-color="#ede3d3"/>
			<stop offset="1" stop-color="#ffffff"/>
		</linearGradient>
		<linearGradient id="g8" x2="1" gradientUnits="userSpaceOnUse" gradientTransform="matrix(390.176,-1365.614,1558.768,445.362,1176.456,2798.162)">
			<stop offset="0" stop-color="#e5d9c7"/>
			<stop offset="1" stop-color="#ffffff"/>
		</linearGradient>
		<linearGradient id="g9" x2="1" gradientUnits="userSpaceOnUse" gradientTransform="matrix(181.675,54.56,-38.089,126.829,2027.982,1471.203)">
			<stop offset="0" stop-color="#ede3d3"/>
			<stop offset="1" stop-color="#ffffff"/>
		</linearGradient>
		<linearGradient id="g10" x2="1" gradientUnits="userSpaceOnUse" gradientTransform="matrix(-165.965,-24.003,16.66,-115.192,2370.612,1660.183)">
			<stop offset="0" stop-color="#ede3d3"/>
			<stop offset="1" stop-color="#ffffff"/>
		</linearGradient>
		<linearGradient id="g11" x2="1" gradientUnits="userSpaceOnUse" gradientTransform="matrix(51.101,-1189.511,1669.524,71.722,1771.233,2078.635)">
			<stop offset="0" stop-color="#ede3d3"/>
			<stop offset="1" stop-color="#ffffff"/>
		</linearGradient>
		<linearGradient id="g12" x2="1" gradientUnits="userSpaceOnUse" gradientTransform="matrix(-28.908,250.539,-371.119,-42.821,2057.172,335.719)">
			<stop offset="0" stop-color="#ede3d3"/>
			<stop offset="1" stop-color="#ffffff"/>
		</linearGradient>
		<linearGradient id="g13" x2="1" gradientUnits="userSpaceOnUse" gradientTransform="matrix(97.202,-469.414,248.994,51.559,1322.421,823.663)">
			<stop offset="0" stop-color="#ede3d3"/>
			<stop offset="1" stop-color="#ffffff"/>
		</linearGradient>
		<linearGradient id="g14" x2="1" gradientUnits="userSpaceOnUse" gradientTransform="matrix(-78.37,239.715,-355.087,-116.088,2856.735,510.68)">
			<stop offset="0" stop-color="#ede3d3"/>
			<stop offset="1" stop-color="#ffffff"/>
		</linearGradient>
		<linearGradient id="g15" x2="1" gradientUnits="userSpaceOnUse" gradientTransform="matrix(107.729,-467.11,247.773,57.143,3320.551,1260.895)">
			<stop offset="0" stop-color="#ede3d3"/>
			<stop offset="1" stop-color="#ffffff"/>
		</linearGradient>
		<linearGradient id="g16" x2="1" gradientUnits="userSpaceOnUse" gradientTransform="matrix(-212.776,120.873,-39.031,-68.708,2127.353,1561.325)">
			<stop offset="0" stop-color="#eddbbb"/>
			<stop offset="1" stop-color="#ffffff"/>
		</linearGradient>
		<linearGradient id="g17" x2="1" gradientUnits="userSpaceOnUse" gradientTransform="matrix(142.849,198.691,-64.16,46.128,2281.044,1594.956)">
			<stop offset="0" stop-color="#eddbbb"/>
			<stop offset="1" stop-color="#ffffff"/>
		</linearGradient>
		<linearGradient id="g18" x2="1" gradientUnits="userSpaceOnUse" gradientTransform="matrix(51.561,-335.982,475.971,73.045,2041.956,1450.028)">
			<stop offset="0" stop-color="#edc7a8"/>
			<stop offset="1" stop-color="#ffffff"/>
		</linearGradient>
		<linearGradient id="g19" x2="1" gradientUnits="userSpaceOnUse" gradientTransform="matrix(152.545,-736.681,958.247,198.424,2468.462,1347.718)">
			<stop offset="0" stop-color="#edd4af"/>
			<stop offset="1" stop-color="#ffffff"/>
		</linearGradient>
		<linearGradient id="g20" x2="1" gradientUnits="userSpaceOnUse" gradientTransform="matrix(137.217,-662.662,270.607,56.035,2132.936,1293.173)">
			<stop offset="0" stop-color="#edd4af"/>
			<stop offset="1" stop-color="#ffffff"/>
		</linearGradient>
		<linearGradient id="g21" x2="1" gradientUnits="userSpaceOnUse" gradientTransform="matrix(169.066,-733.066,953.544,219.915,2060.32,1258.408)">
			<stop offset="0" stop-color="#edd4af"/>
			<stop offset="1" stop-color="#ffffff"/>
		</linearGradient>
		<linearGradient id="g22" x2="1" gradientUnits="userSpaceOnUse" gradientTransform="matrix(152.079,-659.41,269.278,62.103,2387.963,1348.978)">
			<stop offset="0" stop-color="#edd4af"/>
			<stop offset="1" stop-color="#ffffff"/>
		</linearGradient>
		<linearGradient id="g23" x2="1" gradientUnits="userSpaceOnUse" gradientTransform="matrix(.029,-0.683,.084,.004,1628.28,2460.494)">
			<stop offset="0" stop-color="#ede3d3"/>
			<stop offset="1" stop-color="#ffffff"/>
		</linearGradient>
	</defs>
	<style>
		.s0 { fill: #ffffff } 
		.s1 { fill: url(#g1) } 
		.s2 { fill: url(#g2) } 
		.s3 { fill: none;stroke: #4c0303;stroke-linecap: round;stroke-linejoin: round;stroke-width: 18.4 } 
		.s4 { fill: url(#g3) } 
		.s5 { fill: #4c0303 } 
		.s6 { fill: url(#g4) } 
		.s7 { fill: url(#g5) } 
		.s8 { fill: url(#g6) } 
		.s9 { fill: url(#g7) } 
		.s10 { fill: url(#g8) } 
		.s11 { fill: url(#g9) } 
		.s12 { fill: url(#g10) } 
		.s13 { fill: url(#g11) } 
		.s14 { fill: url(#g12) } 
		.s15 { fill: url(#g13) } 
		.s16 { fill: url(#g14) } 
		.s17 { fill: url(#g15) } 
		.s18 { fill: url(#g16) } 
		.s19 { fill: url(#g17) } 
		.s20 { fill: url(#g18) } 
		.s21 { fill: #60a6f4 } 
		.s22 { fill: #eddbbb } 
		.s23 { fill: url(#g19) } 
		.s24 { fill: url(#g20) } 
		.s25 { fill: url(#g21) } 
		.s26 { fill: url(#g22) } 
		.s27 { fill: url(#g23) } 
		.s28 { fill: #e0803f } 
	</style>
	<g id="_Artboards_">
	</g>
	<g id="Layer 1">
		<g id="&lt;Group&gt;">
			<g id="&lt;Group&gt;">
				<g id="&lt;Group&gt;">
					<path id="&lt;Path&gt;" class="s0" d="m1660 3327.8q-0.2 0.1-0.4 0.3c3.2-0.1 6.2 0 9.3 0.1 1 0 2 0.1 2.9 0.2 4.8 0.3 9.4 0.9 14 1.9 0.1 0 0.1 0 0.2 0 89.9 17.1 148.1 128.2 66.6 199.3-19.7 17.2-47.7 32-85.3 42.6-208 58.7-406.3-139.3-225.3-326 4.5-4.4 9-8.8 13.4-12.9 108-102 231.8-155.4 311-238.9 32.8-34.5 58-74.1 71.4-124.3l94.8 86.8c-17.5 186.4-159.4 266.4-272.6 370.9z"/>
					<path id="&lt;Path&gt;" class="s1" d="m1752.6 3529.6c-19.7 17.2-47.7 32-85.3 42.6-208 58.7-406.3-139.3-225.3-326 4.5-4.4 9-8.8 13.4-12.9l1.3 0.4c-97.4 117.1-50 234.2 17.3 180.9 0 0 45.4-42.9 102.4-70.3-4.9 3-94.3 59.5-66.4 155.9 1.8-15.6 6.6-31.4 20-47.9 4.7 51.5 46 72.3 103.6 79.4 0 0-23.3-9.8-32.8-32.7 27.1 12.2 128.6 8.2 167.9-67.2 0 0 17.4 61-16.1 97.8z"/>
					<path id="&lt;Path&gt;" class="s2" d="m1932.6 2956.9c-17.5 186.4-159.4 266.4-272.6 370.9-92.7-2.1-169.4 70-174 74.5 73.6-92.6 173.8-114.7 186.6-190.8 6.2 14.9 15.1 26.5 6.2 41.4 74.3-64.9 60.8-139.3 60.8-139.3 16.4 22.6 19.3 52.9 19.3 52.9 47.5-88.4 7.6-172.1 7.6-172.1h-0.1c32.8-34.5 58-74.1 71.4-124.3z"/>
					<path id="&lt;Path&gt;" class="s3" d="m1837.8 2870.1c-47.2 177-240.8 221.8-395.7 376-181.1 186.8 17.2 384.8 225.2 326.2 208-58.7 119.3-246.9-7.7-244.3 113.4-104.5 255.6-184.5 273-371.2"/>
					<path id="&lt;Path&gt;" class="s0" d="m832.5 2778.4c-39.8 2.2-65.5 17.3-74.9 43-15.2 40.7 10.5 108.1 84.9 192.6 112.4 105.1 202.5 142.1 342.1 36.3l234.3-187.4 276.4-152-4.2-146.5-8.4-298.6-114.4-168.4c-15.2 15.1-30.4 30.3-45.8 45.4-89.4 88.9-180.3 179.3-267.9 268.6-127 129.4-247.2 256.7-346.6 374.7-29-6.5-54.3-8.9-75.5-7.7z"/>
					<path id="&lt;Path&gt;" class="s4" d="m757.6 2821.4c-15.2 40.7 10.5 108.1 84.9 192.6 112.4 105.1 202.5 142.1 342.1 36.3l234.3-187.4 276.4-152-4.2-146.5c-39-121.6-80.8-227.7-100.6-280.7-16.9-44.9-40-95.5-68-140.9-89.4 88.9-180.3 179.3-267.9 268.6 0 0 113.8-1.1 180.3 135.4l-63.6-45.8c0 0 91.4 107.1 86.3 249.9l-48.4-91.2c0 0 33 103.4-112.1 232.7l18.7-100.7c-3 7-64.5 152.8-219.9 235.8l74.7-111.1c-21.1 30-192.1 251.6-413-95z"/>
					<path id="&lt;Path&gt;" class="s3" d="m1568.3 2097.4c-232.7 231.4-480.5 475.3-660.3 688.7-170-38-211.6 62.1-65.4 227.9 112.3 105.1 202.4 142.1 342 36.3l234.3-187.4 276.4-152-12.6-445.1"/>
					<path id="&lt;Path&gt;" class="s5" d="m917 2784.5c15.9 78 65.4 148.6 130.6 193.7 0 0 13.3 9.1 13.3 9.1 1.5 0.9 2 3 0.9 4.4-0.9 1.4-2.7 1.7-4.1 0.9l-13.9-8.7c-51.6-32.1-93.9-78.8-121.3-133.1-10.2-20.4-18.4-40.6-23.6-63.2-1.1-4.9 2-9.8 7-10.9 5.3-1.2 10.4 2.5 11.1 7.8z"/>
					<path id="&lt;Path&gt;" class="s5" d="m836 3006.3c16-36 54.9-55.1 92.2-60.1 1.7-0.3 3.2 0.8 3.5 2.5 0.3 1.6-0.8 3.2-2.4 3.5-16.7 4.4-33.1 11.2-46.9 21.6-12.7 9.9-24 22.8-28.9 38.1-3.6 12.4-21.9 6.6-17.5-5.6z"/>
					<path id="&lt;Path&gt;" class="s5" d="m755.4 2876c22.3-28.8 58.8-47.5 95.5-42.4 1.6 0.1 2.9 1.6 2.7 3.3-0.1 1.7-1.6 2.8-3.2 2.8-16.4 0-32.5 4.1-46.4 12.9-13.3 8.3-25.3 20.2-33.3 33.6-6.8 10.9-22.7 0.3-15.3-10.2z"/>
					<path id="&lt;Path&gt;" class="s0" d="m2336.2 3462.9c24.6 31.3 30.2 60.5 17.2 84.6-20.4 38.3-88 63.7-200.6 63.7-153.2-14.8-240.5-57.9-253.5-232.6l-14.3-299.7-68.8-307.9 112.7-93.7 229.6-191.2 201.9-25.5c-1.2 21.4-2.6 42.8-3.8 64.4-7.6 125.8-15.2 253.8-24.2 378.5-13.1 180.8-29.2 355.2-52 507.9 24.1 17.4 42.7 34.7 55.8 51.5z"/>
					<path id="&lt;Path&gt;" class="s6" d="m2353.4 3547.5c-20.4 38.3-88 63.7-200.6 63.7-153.2-14.8-240.5-57.9-253.5-232.6l-14.3-299.7-68.8-307.9 112.7-93.7c117-51.2 224.3-90 277.1-110.1 44.8-17.1 98.1-33.2 150.6-42.2-7.6 125.8-15.2 253.8-24.2 378.5 0 0-74.6-86.1-220.9-45.7l76.4 17.5c0 0-140.8 2.2-244.5 100.4l100.4-23.9c0 0-99.3 43.6-100.4 238l63.2-80.6c-3.3 6.8-72 149.4-31.5 320.8l33.9-129.5c-8.6 35.7-61.7 310.5 344.4 247z"/>
					<path id="&lt;Path&gt;" class="s3" d="m2360.4 2460.6c-19.7 327.6-38.8 674.7-79.9 950.8 140.8 102.3 93.3 199.7-127.8 199.7-153.1-14.7-240.4-57.8-253.4-232.5l-14.3-299.7-68.8-307.9 342.3-284.9"/>
					<path id="&lt;Path&gt;" class="s0" d="m3101.1 2179.3c-13.6 14.2-29.7 26.5-47.8 36-69.1 36.5-158.4 48.8-262 44.2-84.5-3.6-167.9-19.9-248.4-45.8-55.8-17.9-112.3-38.2-169.5-60.4-24.2-9.3-48.6-19.1-73-29.1l-36.7-9.7-504.9-133.4-20.7-5.4c-193-71-386.4-192.9-580.8-413-215.1-226.8 16.4-465.7 179.9-398.8 16.7 6.7 32.6 16.6 47.2 30 94.8 129.9 229.7 245.1 380.2 354.4l185.8 97.7 28.7 15.1 223.7 117.7 23.1 12.2 21.2 11.1 198.4 64.7 24.2 7.9 128.8 41.9c69.8 22.8 144.8 25.9 216 7.7 36.3-9.3 72.1-20.7 106.9-30.5 67.9-25.9 130.5-8.9 173.4 30.5 24.5 22.4 42.6 52.2 51.6 85.5 16.5 61.5-2.6 125.2-45.3 169.5z"/>
					<path id="&lt;Path&gt;" class="s7" d="m1979.1 1661.1c-20.3 67.5-85.7 206.7-116.5 255.4-16 25.3-57.6 47.7-103.8 64.6l-20.7-5.4c-193-71-386.4-192.9-580.8-413-215.1-226.8 16.4-465.7 179.9-398.8-116.8 27.9-97.9 113.1-96.4 119.3l-23.2-65.2c-47.1 95.3 23.8 199 27.2 203.8l-52.7-55.7c8.8 132.7 166.6 223.4 166.6 223.4l-113.8-36.5c80.3 111.4 206.1 109.4 206.1 109.4l-82.1 8.2c123.8 94.1 247.5 72.6 247.5 72.6l-85.1 19.1c163.7 61.4 314.4-55.9 314.4-55.9l104.7-60.4 34.1-19.7c2 5.3-0.3 17.8-5.4 34.8z"/>
					<path id="&lt;Path&gt;" class="s8" d="m3101.1 2179.3c-13.6 14.2-29.7 26.5-47.8 36-69.1 36.5-158.4 48.8-262 44.2-84.5-3.6-167.9-19.9-248.4-45.8-55.8-17.9-112.3-38.2-169.5-60.4-24.2-9.3-48.6-19.1-73-29.1l-36.7-9.7c-30.8-115.4-66.9-259.4-59.6-274.2 7.1-14.5 7.7-32 21.8-49.3l21.2 11.1 198.4 64.7 24.2 7.9 0.5 9.8c0 0-47.5 82.3-12.1 174.4 0 0-4.9-32.4 16.4-69 0 0-1.6 102.6 123.9 164.3 0 0-32.7-32.6-38.2-75 0 0 50.8 87.8 187.8 106.5l-54.4-41c4.6 2.6 102.2 56.2 246 22l-27.3-18.2c0 0 141.4 28.1 187.2-38.5l-24.6 1.1c0 0 77-36.6 24.6-172-1.9-5-3.5-9.9-4.7-14.8 24.5 22.4 42.6 52.2 51.6 85.5 16.5 61.5-2.6 125.2-45.3 169.5z"/>
					<path id="&lt;Path&gt;" class="s3" d="m1764.6 1548.3c-150.5-109.3-285.4-224.5-380.2-354.4-159.2-145.5-464 119-227.1 368.8 194.4 220.1 387.8 342 580.8 413l562.3 148.5c82 33.7 163 64 242.5 89.5 80.5 25.8 163.9 42.1 248.4 45.9 103.6 4.5 192.9-7.8 262-44.3 74.5-39.3 115-124.2 93.1-205.6-24.6-91.3-118.3-156.6-225.1-115.9-34.7 9.8-70.5 21.2-106.8 30.5-71.2 18.2-146.1 15.1-216-7.7l-351.4-114.5"/>
					<path id="&lt;Path&gt;" class="s0" d="m2380.5 2470.7c-3.8 76.5-33.6 149.6-84.1 207.3-155.4 177.4-387.5 181.4-575 95.7-240.9-110.2-386.3-352.3-254-592.8 0 0 97.9-156.8 231.9-296.4 0.1-0.1 0.1-0.1 0.1-0.1 5.6-5.9 11.4-11.7 17.1-17.6 0.1 0 0.1 0 0.1 0 17.6-17.7 35.7-35 54.3-51.6 365.7-166.7 596.9 184.5 596.9 184.5-0.8 21.4-1.2 42.1-1.2 62.1-0.1 4.7-0.1 9.4-0.1 14.1 0.1 168 19.2 289.1 14 394.8z"/>
					<path id="&lt;Path&gt;" class="s9" d="m2380.5 2470.7c-3.8 76.5-33.6 149.6-84.1 207.3-155.4 177.4-387.5 181.4-575 95.7-240.9-110.2-386.3-352.3-254-592.8 0 0 97.9-156.8 231.9-296.4 0.1-0.1 0.1-0.1 0.1-0.1 5.6-5.9 11.4-11.7 17.1-17.6-1.4 2.4-48 80.9-78.8 154.7l49.1-42.5c0 0-59.6 176.8-56.6 298l57.7-148.3c-2 6.6-70.9 240.5 104.8 386.3l-28.3-54.4c3.7 3.1 166.7 137.8 349.8 36.9 0 0-24.5 40.4-76.9 67.7 0 0 174.2-20.4 234.5-208.9l-55.3 47.3c3-3.3 99.1-111.9 150-327.7 0.1 168 19.2 289.1 14 394.8z"/>
					<path id="&lt;Path&gt;" class="s10" d="m2380.5 2470.7c-3.8 76.5-33.6 149.6-84.1 207.3-155.4 177.4-387.5 181.4-575 95.7-240.9-110.2-386.3-352.3-254-592.8 0 0 97.9-156.8 231.9-296.4-3.5 4.5-116.3 150.1-159.9 283.9l66.9-71.8c-4 5.8-70.8 103.6-66.9 256.8l45-71.9c-1.1 4-37.9 129 34.9 261.9l10.7-80.9c-1.4 16.3-2.8 105.4 123.1 182.4 0 0 108.1 36.9 217.8 18l-50.7 37.7c0 0 194.8-4.9 285.8-133.4l-21.6 78.6c0 0 137.8-95.9 150.1-297.3l-49.9 67.1c2-4.6 63.8-148.3 81.9-339.7 0.1 168 19.2 289.1 14 394.8z"/>
					<g id="&lt;Group&gt;">
						<path id="&lt;Path&gt;" class="s0" d="m2904.3 1672.9c0 0 26.5 35.8 12.4 98.3l-28.1-28.5c0 0-13.7 107.6-137.6 203.7 12.8-28.3 23.4-57.6 26.2-90 0 0-76.2 133.1-286.1 161.7l69.4-69.2c-4.2 2.4-141.7 80.3-275.9 75.6-132.9 11.9-247.9-9.6-339.9-74.4-123.9-51.8-216.2-179.9-219.1-183.9l34.1 91.9c-178.7-113.6-192.3-266.4-192.3-266.4-11.1 30.6-13.6 61.6-13.9 92.6-72.4-138.9-39.8-242.4-39.8-242.4l-37.5 14.1c13.3-62.7 52.2-84.2 52.2-84.2-38.9-13.8-52.2-38.4-52.2-38.4 88.7-39.4 105.4-217.2 219.1-400.4 0 0 0-0.1 0-0.1-55.6-114.8-54.2-234.5-31.2-335.7 29.1-128.3 93.1-226.9 120-247.9 47.9-37.4 140.6 44 220.9 141.3 77.4 93.8 125.7 114.9 129.1 116.2 0.2 0.2 0.2 0.2 0.2 0.2 10.6-0.8 21-1.4 31.4-1.7 8.7-0.4 17.4-0.7 25.9-0.7 123.2-1.7 221.7 18.2 221.7 18.2 0 0 129.4 30.5 260 102.1 0 0 52.5 3.2 166.1-51.7 113.6-54.8 231.8-90.2 259.7-36.1 28 54.1 60.3 383.5-163.1 567.3 26.8 213.9-32.3 382.5 31.9 455.4 0 0-22.4 16.8-63.6 13.1z"/>
						<path id="&lt;Path&gt;" class="s11" d="m2216.3 1506.6c-21.4 54.8-133 74.6-181.9 38.7 0 0 4.2 45.6 74.8 47.2 70.6 1.6 103.8-54.5 103.8-54.5"/>
						<path id="&lt;Path&gt;" class="s12" d="m2223.1 1508c-3.5 58.8 89.6 123.4 149.1 111.2 0 0-22.8 39.7-87.7 11.7-64.8-28-71.5-92.9-71.5-92.9"/>
						<path id="&lt;Path&gt;" class="s13" d="m2904.3 1672.9c0 0 26.5 35.8 12.4 98.3l-28.1-28.5c0 0-13.7 107.6-137.6 203.7 12.8-28.3 23.4-57.6 26.2-90 0 0-76.2 133.1-286.1 161.7l69.4-69.2c-4.2 2.4-141.7 80.3-275.9 75.6-132.9 11.9-247.9-9.6-339.9-74.4-123.9-51.8-216.2-179.9-219.1-183.9l34.1 91.9c-178.7-113.6-192.3-266.4-192.3-266.4-11.1 30.6-13.6 61.6-13.9 92.6-72.4-138.9-39.8-242.4-39.8-242.4l-37.5 14.1c13.3-62.7 52.2-84.2 52.2-84.2-38.9-13.8-52.2-38.4-52.2-38.4 88.7-39.4 105.4-217.2 219.1-400.4-2.6 6.6-84.8 217.6-90.7 353.4l45.4-50c0 0-35.5 93.1-21.6 225.7 0 0 7.2-61.6 45.7-140-2.9 8.6-42.8 129.8 21.2 314.4 0 0 4-74.8 30.3-126.1 0 0 11.8 147.2 151.7 316.8-1.6-3.3-53.3-108.2-59.7-190.7 0 0 43.6 70.6 139.9 141.6 111.3 82.2 251.9 112.9 387.3 84.8 117.2-24.3 186.4-70.3 186.4-70.3-40.4 72.3-131.2 146.1-134 148.3 197.9-95.5 270.2-224.4 270.2-224.4 2.4 57.5-25.2 127.2-25.2 127.2 140.3-146.3 150.6-277.3 150.6-277.3 2.3 85-15.8 143.2-16.8 146.6 67.8-114.6 74.5-213.8 74.5-213.8l20.3 64.2c52.2-127.8 65.2-359 65.2-359 26.8 213.9-32.3 382.5 31.9 455.4 0 0-22.4 16.8-63.6 13.1z"/>
						<path id="&lt;Path&gt;" class="s14" d="m2134.1 606.8c-69.9 9.7-152.6 55.1-152.6 55.1 0 0-25.8 40.7-67.6-23.9-42-64.6-129-176.9-129-176.9-71.9-18.8-120.1 133.1-120.8 136.1 29.1-128.3 93.1-226.9 120-247.9 47.9-37.4 140.6 44 220.9 141.3 77.4 93.8 125.7 114.9 129.1 116.2z"/>
						<path id="&lt;Path&gt;" class="s15" d="m1784.8 461.1c0 0-27.7-8.8-49.6 57.4-21.9 66.3-69.3 213.1 12.1 383.7 0 0 68-107.9 186.3-220.3-28.2-65.7-63.9-134.1-148.8-220.8z"/>
						<path id="&lt;Path&gt;" class="s16" d="m2673.6 724.9c59.5 38 115.7 113.8 115.7 113.8 0 0 6.4 47.7 71.4 6.5 65.1-41.2 191.1-106.9 191.1-106.9 73.1 13 53.5 171.1 52.9 174.2 27.1-128.8 10.1-245.1-5.5-275.4-28-54-146.1-18.7-259.7 36.1-109.5 52.9-162.3 51.9-165.9 51.7z"/>
						<path id="&lt;Path&gt;" class="s17" d="m3051.8 738.3c0 0 28.9 3.6 21.2 72.9-7.8 69.4-26.1 222.6-171.2 343.6 0 0-16.8-126.4-77.3-278 53-47.8 114-95.1 227.3-138.5z"/>
						<path id="&lt;Path&gt;" class="s18" d="m2074.4 1437.4c0 0-33.5 8.4-48.3 38.8-72.6 13.5-121.8 43.9-127.7 105.3 0 0 52.6-88.4 136-36.2 0 0 8.7-98 162.6-59.2l20.9-7.1c0 0 2.5-29.8 3.2-32.2"/>
						<path id="&lt;Path&gt;" class="s19" d="m2380.9 1504.5c0 0 26.9 21.6 27.7 55.4 60.3 42.6 92.3 90.7 72.1 149 0 0-10.9-102.3-108.5-89.7 0 0 33-92.6-123-121.6l-16-15.3c0 0 10.1-28.1 10.5-30.5"/>
						<path id="&lt;Path&gt;" class="s20" d="m2368.8 1446.2c0 0 20.6-158.4 218.6-168.5 0 0-76.9-38.9-135.6-34.8l64.4-56.5 17.3-8.8c0 0-77.7-3.8-144 37.3 0 0 21.9-47.3 73.1-110.2l-57.5-21.4c0 0-69.5 39.1-115.4 104.3-14.6-78.4-61.4-143-61.4-143l-61.2-4.6c20.3 78.6 20.4 130.8 20.4 130.8-43-65.1-115.2-94.1-115.2-94.1l12.1 15.2 34.8 78.2c-51.6-28.3-137.7-25-137.7-25 175.7 91.9 128.2 244.4 128.2 244.4l-5.6 46.9 253.6 70.2"/>
						<path id="&lt;Path&gt;" class="s0" d="m2094.9 1438.9l-30.2 21.4c-153.8 73.2-359.5-78.6-220.9-289.5 25.3-7.2 52.6-8.2 79.7-4 79 12.3 156.6 69.2 180.6 146.5 11.9 37.9 10.8 80.7-9.2 125.6z"/>
						<path id="&lt;Path&gt;" class="s21" d="m2104.1 1313.3c-9.3 65.6-65.7 116.1-134 116.1-74.8 0-135.4-60.7-135.4-135.4 0-58.5 37-108.2 88.8-127.2 79 12.3 156.6 69.2 180.6 146.5z"/>
						<path id="&lt;Path&gt;" class="s5" d="m2085.8 1434.8c48.5-109.2-28-215.4-134.5-246.4-33.9-10-70.3-11.8-103-2l9.1-6.7c-33.9 48.8-57.3 110.1-42 169.5 25.1 103.4 154.3 152.1 247.8 108.2 3.8-1.8 6.7 4.1 2.9 5.9-58.4 30.1-132.3 27.5-189.5-5.5-59.9-32.7-96.7-101.8-90.5-170 2.9-45.2 20.9-87.8 44.2-125.9 2.1-3.6 5.4-5.8 9.1-6.7 80.2-20.4 164.7 10.7 222 66.8 60 58 79.1 144.8 42.6 220.9-5.7 11.8-23.2 3.9-18.2-8.1z"/>
						<path id="&lt;Path&gt;" class="s5" d="m2062.9 1293.9c0 51.3-41.6 92.8-92.8 92.8-51.2 0-92.7-41.5-92.7-92.8 0-51.2 41.5-92.7 92.7-92.7 51.2 0 92.8 41.5 92.8 92.7z"/>
						<path id="&lt;Path&gt;" class="s0" d="m1929.9 1266.4c-12.2 21.2-34 31.5-48.7 23-14.7-8.5-16.7-32.5-4.5-53.7 12.2-21.2 34-31.5 48.7-23 14.7 8.5 16.7 32.5 4.5 53.7z"/>
						<path id="&lt;Path&gt;" class="s22" d="m2225.7 1432c0 0-184.2-29.6-202.4 53.2 0 0 124.2-20.7 185.9 0z"/>
						<path id="&lt;Path&gt;" class="s5" d="m2224.1 1441.8c-53.1-8.6-178.6-22.4-197.6 44.1-1 4.1-7.3 2.7-6.5-1.4 13.9-60.5 99.2-65 149.7-65.7 19.2 0.1 38.1 1.1 57.5 3.4 5.5 0.6 9.4 5.5 8.7 11-0.6 5.8-6.2 9.8-11.8 8.6z"/>
						<path id="&lt;Path&gt;" class="s5" d="m2213.8 1549.2c-28.1 33-70.9 59.8-116.2 54.7-23.2-2.5-44.4-16.8-56.1-36.9q-3-6-5.6-12c-0.9-1.9 0-4.2 1.9-5.1 1.7-0.7 3.7-0.1 4.7 1.4 44.7 61.8 115.6 26.3 165.5-8.5 4-2.9 9.1 2.6 5.8 6.4z"/>
						<path id="&lt;Path&gt;" class="s5" d="m2214.9 1544.3c30.8 52.4 80.4 114.3 146.7 76.8 3.9-2.4 8.1 3.2 4.6 6.2-47 44.6-108.1 16.4-138.2-32.2-9.5-14.8-16.6-30.8-21.1-47.4-0.6-2.4 0.8-4.7 3.1-5.4 1.9-0.5 3.9 0.4 4.9 2z"/>
						<path id="&lt;Path&gt;" class="s5" d="m2238.1 1423l-17 78.1c-9.1-4.7-17.2-9.8-24.1-15-1.6-1.1-2-3.2-1.2-5l2.8-5.7c0.6-1.2 1.8-2 3.1-2.3 7-1.9 11.8-9 9.9-16.9-1.1-4.8-5.1-8.8-9.9-10-9.3-2.3-17.4 4.6-17.4 13.5 0 2.3 1.6 6.5 1.6 6.5-1.2 2.7-2.3 5.6-3.1 7.6-17.9-18.2-22.8-36.3-14.3-46.1 12.8-14.8 69.6-4.7 69.6-4.7z"/>
						<path id="&lt;Path&gt;" class="s5" d="m2135.5 616.8c-90.3 17.6-177.2 59.4-245.1 121.9-22.8 20.9-43.4 44.4-62.2 69.6-0.8 1.2-2.4 1.4-3.5 0.6-1-0.8-1.3-2.1-0.7-3.2 14.6-28.2 33.2-54.8 55.2-78.3 44-47.1 99.9-82.7 160-105.7 30.6-11.6 61.1-20.5 93.9-24.6 5.4-0.6 10.4 3.3 11 8.7 0.6 5.4-3.3 10.3-8.6 11z"/>
						<path id="&lt;Path&gt;" class="s5" d="m2006.3 659c-17.8 11-35.9 21.5-53.8 32.3-5.1 3.1-11.8 1.3-14.8-3.8-36.6-58.7-74-117.9-115.3-173.2-13-16.5-25.4-33.7-41.8-45.7-1.7-1.1-3.2-1.8-4.3-2.1 0.1 0 0.1-0.1 0.3-0.1-19 12.3-29.1 39.4-38.9 60.7-7 15.8-12.9 32.2-18.6 48.6-0.9 2.9-5.5 1.8-4.8-1.3 7.1-32.5 25.2-109.5 57.5-123.9 22-6 53.2 36.9 66.3 51.5 43.9 55.2 81.7 114.1 118.2 174.3 0 0-14.7-3.8-14.7-3.8 18.2-10.3 36.3-20.7 54.7-30.7 4.8-2.6 10.8-0.9 13.5 4 2.5 4.6 0.9 10.4-3.5 13.2z"/>
						<path id="&lt;Path&gt;" class="s5" d="m1944.7 675.4c-33.4-39.1-75.9-60.2-130.9-56.1 0 0 63.1 12.8 96.8 76.8-45.8-5-79.4 7.4-108.9 25.7 0 0 58.7-14.6 92.2 6.4"/>
						<path id="&lt;Path&gt;" class="s0" d="m2361.7 1497.2l18.5 32.2c109.2 130.7 359.4 78.6 321.6-170.9-20-17.1-44.4-29.4-70.7-36.9-77-21.8-171.3-2.5-225.3 57.7-26.7 29.5-43.6 68.8-44.1 117.9z"/>
						<path id="&lt;Path&gt;" class="s21" d="m2405.8 1379.3c-19 63.5 11.2 132.9 73.2 161.4 68 31.3 148.4 1.5 179.6-66.4 24.4-53.1 11.6-113.8-27.5-152.7-77-21.8-171.3-2.5-225.3 57.7z"/>
						<path id="&lt;Path&gt;" class="s5" d="m2351.8 1497.1c-1.7-134.2 124.7-211.6 248.8-196.5 39.7 4.7 79.5 18.9 111.7 45.6 3.2 2.5 5.1 6.1 5.5 9.8 5.3 44.5 3.8 90.6-12.4 133-22.9 64.5-85.2 111.9-153.3 116.6-65.7 6.2-134-22.4-174.5-74.1-1.1-1.4-0.9-3.5 0.6-4.6 1.3-1.1 3.4-0.9 4.5 0.4 27.6 31.5 65.9 52.8 106.3 60.5 60.1 11.9 125.8-7.1 164.1-55.3 38.7-47.6 43-113.1 32.6-171.6 0 0 5.5 9.9 5.5 9.9-79.9-67.6-220.6-55.9-286 27.4-21.9 28.2-32.6 63.6-33.6 99.3-0.6 12.9-19.6 12.6-19.8-0.4z"/>
						<path id="&lt;Path&gt;" class="s5" d="m2451.3 1378.9c-21.4 46.6-1 101.6 45.5 123 46.6 21.4 101.7 1 123.1-45.5 21.3-46.5 1-101.6-45.6-123-46.5-21.4-101.6-1-123 45.5z"/>
						<path id="&lt;Path&gt;" class="s0" d="m2583.6 1409.5c2.3 24.3 17.8 42.8 34.7 41.2 16.9-1.6 28.8-22.6 26.5-46.9-2.3-24.4-17.8-42.8-34.7-41.3-16.9 1.6-28.7 22.6-26.5 47z"/>
						<path id="&lt;Path&gt;" class="s22" d="m2245.8 1436.4c0 0 179.6 50 161.6 132.9 0 0-104.2-70.7-169-77.7z"/>
						<path id="&lt;Path&gt;" class="s5" d="m2248.4 1426.8c56.1 19.1 178.3 68.7 162.3 143.2-1.1 4-7.2 2.8-6.5-1.4 1.6-8.8 0.8-17.7-2.1-26-20.8-52.9-107.9-82.2-159-96.7-13.2-3.4-7.9-22.9 5.3-19.1z"/>
						<path id="&lt;Path&gt;" class="s5" d="m2249.3 1645.5c-26.4 20.5-66.3 19.2-92.6-0.7-8.9-6.5-16.4-14.5-21.3-24.5-0.7-1.3-0.1-2.9 1.2-3.5 1.1-0.6 2.4-0.2 3.2 0.7 27 28.5 69.9 37.9 106.3 23 3.1-1.6 6 2.8 3.2 5z"/>
						<path id="&lt;Path&gt;" class="s5" d="m2238.2 1423l-17.1 78.1c10.2-0.5 19.6-1.7 28.1-3.5 1.9-0.4 3.2-2.2 3.1-4.1l-0.1-6.4c-0.1-1.3-0.8-2.5-1.9-3.4-5.6-4.6-6.9-13.1-1.9-19.4 3.1-3.9 8.3-5.9 13.2-5 9.3 1.8 13.9 11.5 10.2 19.5-1 2.1-4.2 5.3-4.2 5.3 0 2.9-0.2 6-0.3 8.2 23.8-9.1 35.8-23.5 32.2-36-5.5-18.7-61.3-33.3-61.3-33.3z"/>
						<path id="&lt;Path&gt;" class="s23" d="m2411.3 1243c62.2-54.1 213.1-160.3 290.5-139.3-92.9 69.4-244.8 166.4-290.5 139.3z"/>
						<path id="&lt;Path&gt;" class="s24" d="m2535.6 902.2c-74.2 31.2-171.5 216.1-192 297.1 94.3-60.7 213.3-246.7 192-297.1z"/>
						<path id="&lt;Path&gt;" class="s25" d="m2156 1187.2c-33.9-75.2-126.6-234.7-205.8-247.9 55.5 101.8 153 253.4 205.8 247.9z"/>
						<path id="&lt;Path&gt;" class="s26" d="m2185.4 825.5c54.4 59.4 65.5 268 50.4 350.2-60.4-94.6-90.9-313.2-50.4-350.2z"/>
						<g id="&lt;Group&gt;">
							<path id="&lt;Path&gt;" class="s5" d="m2411.3 632.5c-68-12.3-137.8-18-207-18-23.2-0.1-46.4 1-69.6 2.4-3.1 0.2-6.3-1.7-8.6-2.8-9.3-4.8-18-10.5-26.4-16.5-65-46.4-108.9-114.5-165-169.8-30.4-29.6-64.6-61.3-104.7-74.9-19.8-6.4-37.5-2.2-50 14.3-14 16-25.9 34.8-37 53.8-43.5 76.7-71.9 162.8-81.1 250.5-4.4 43.8-3.7 88.3 3.3 131.7 6.7 43.5 20.3 85.7 39.1 125.3 1.5 3.2 1.2 6.8-0.5 9.6-40.5 65.1-71.3 135.2-99.6 206.4-27.9 64-56.4 166.6-124 198 0 0 4.7-13.8 4.7-13.8 2.4 3.6 5.4 7.4 8.6 10.5 7.1 7 15.4 12.8 24.3 17.3 7.9 4.8 24 5.8 19.8 18.9-0.8 2.2-2.4 4-4.4 5.1-19.1 12.7-32.5 33.3-40.6 54.7-2.9 7.4-4.8 15.1-6.7 22.9 0 0-13.2-11.4-13.2-11.4l37.4-14.2c7.6-3.1 15.6 4.8 13 12.3-14.1 58.9-5 122.1 14.9 178.7 6.4 19 15.5 38.3 24.4 56.2 0 0-18.8 4.5-18.8 4.5 0.2-32.2 3.2-65.2 14.4-95.9 1.9-5.2 7.6-7.9 12.7-6 3.7 1.3 6.1 4.6 6.5 8.2 3 23.3 10.8 46.5 19.6 68.3 22.9 53.7 58.7 101.9 102.3 140.7 0 0 7.6 7.1 7.6 7.1l8.1 6.4c15.2 12.8 33.9 25.6 50.3 36.7 0 0-14.7 11.9-14.7 11.9l-34.1-92c-2-5.1 0.6-11 5.8-12.9 4.3-1.6 9.1 0 11.6 3.7 13.3 19.1 28.4 37.9 44.1 55.8 47.3 53.5 102.5 101.7 167.8 132 1.1 0.5 1.6 1.8 1.1 2.8-0.5 1.1-1.8 1.6-2.8 1.1-45.2-18.1-86.7-44.6-124.1-75.6-37.7-31.4-71.9-65.8-102.3-104.6 0 0 17.4-9.2 17.4-9.2 0.1 0 34.2 92.2 34.3 92.4 1.9 5-0.7 10.7-5.8 12.6-3.1 1.1-6.4 0.6-9-1.2-11.8-8.2-23.8-16-35.3-24.6-6.2-4.8-19.5-15.8-25.3-20.3-4.7-4-18.9-17.6-23.8-22-15.2-15.3-29.6-31.7-42.8-48.8-30-40.6-54-86.7-65.7-136.1-1.8-7.5-3.1-14.2-4-22.2 0 0 19.2 2.5 19.2 2.5-10.2 28.1-13 58.6-13.2 89.4 0.2 5.5-4.3 10.2-9.9 10.1-3.9 0-7.3-2.3-8.8-5.6-4.6-9.6-9.5-19.1-13.8-28.9-2.3-5.3-7-17.2-9.2-22.3-1.5-4.3-6.1-18.2-7.7-22.8-17.1-56.6-24.5-118-9.9-176.1 0 0 13 12.3 13 12.3l-37.5 14.2-0.3 0.1c-5.1 1.9-10.7-0.6-12.6-5.6-0.7-2-0.8-4-0.3-5.8 2.1-8.8 4.2-17.5 7.5-25.8 9.8-25.8 25.9-50.1 49.6-65.1 0 0 1.5 18.1 1.5 18.1-16.9-6.1-32.8-15.2-45.6-27.9-6.7-7.1-21.2-21.2-7.7-28.8 33.7-15.6 52.8-49.3 69.2-81.6 16.6-34 30.3-70 44.7-105.7 28.6-72 60.1-143.5 101.2-209.6 0 0-0.5 9.6-0.5 9.6-40.1-82.7-53.9-176.6-44.2-267.7 12.2-110.1 53.1-228.5 122.9-315.5 36.5-46.8 95.5-14.5 132.3 14.2 36.3 28 67.7 61 97.7 95.3 41.9 49.2 83 100.7 139.8 132.8 1.1 0.5 2.4 1.1 3 1.4l-4.3-0.7c94.2-6 188.7-0.7 281.6 16 12.7 3.2 9.6 21.6-3.9 19.5z"/>
							<path id="&lt;Path&gt;" class="s5" d="m2415.5 613.1c91.4 23.6 179.6 58.3 262.6 103.1 0 0-4.2-1.2-4.2-1.2 0.7 0 2.1 0 3.3-0.1 65-5.3 123.9-35 182.5-62.2 41.6-18.7 83.9-35.5 128.6-45.8 45.3-10.5 112.5-15.6 126.1 42.4 27.2 108.3 14.8 232.7-20 338-29.3 86.7-81.1 166.3-152 224.7 0 0 3.5-8.9 3.5-8.9 9.7 77.2 8.5 155.3 4.4 232.6-1.8 38.6-4.4 77-3.5 114.8 1.4 36.1 4.7 74.8 28.8 103 9.2 12.6-10 19.4-19 23-17 6.3-35.2 7.8-53.1 6.3 0 0 8.9-15.8 8.9-15.8 20.1 31.3 21.7 70.9 14 106.4-1.2 7.7-11.7 10.7-16.8 4.8 0 0-28.1-28.5-28.1-28.5l16.9-5.8c-12.1 64.1-48.9 121.2-93.6 167.5-14.4 15.2-31.4 29.6-47.7 42.8-7.8 6.6-19.7-2.3-15.3-11.6 12.8-28.2 23-57.2 25.5-87.1l18.5 5.8c-37.8 58.2-96.3 100.4-158.6 129.1-9.5 3.6-20.6 8.6-30.1 12.1-4.9 1.4-25.6 8.5-30.8 10.1-8.4 2.2-23.3 5.6-31.4 7.8-14.1 3-28.3 5-42.5 7.6-9.4 1.6-15.6-10.2-8.3-16.9 0 0 69.4-69.3 69.4-69.3 0-0.1 12 15.6 12 15.6-43.9 22.6-89.3 39.6-136.6 52.4-47 12.5-95.8 19.3-144.4 16.9-1.2-0.1-2.1-1.1-2-2.3 0-1.2 0.9-2.1 2.1-2.1 47.9-0.2 95.4-9.3 140.9-24.1 22.7-7.4 45-16 66.8-25.7 21.6-9.7 43.3-20.5 63.3-32.3 10.1-5.9 20.1 7.6 12.1 15.6-0.1 0.1-69.4 69.2-69.6 69.4 0 0-8.3-16.9-8.3-16.9 19.5-3.1 41.6-7.1 60.9-12.3 0 0 10.1-2.5 10.1-2.5l9.8-3.3c77.4-24.1 152.5-70.4 198-138.8 5.2-9.2 19.5-4.5 18.5 5.8-2.7 32.6-13.7 63.9-27 93.2 0 0-15.2-11.9-15.2-11.9 15.6-12.6 31.9-26.4 45.7-40.9 41.7-43.2 76.5-96.9 88.2-156.5 0.9-7.9 11.5-11.1 16.9-5.4 0 0 28.1 28.5 28.1 28.5l-16.8 4.8c0.7-3.9 1.5-7.8 2.2-11.7 3.4-23.2 1.8-47.7-7.8-69.2-1.3-3-3.5-7-5.2-9.5-4.8-6.6 1.1-16.4 9.1-15.6 17.3 1.5 35.3-0.4 51.1-8 1.8-0.7 4.1-2.3 5.5-3.1 0 0-1.5 14.5-1.5 14.5-48.3-56.8-31.3-161.8-29.9-231.6 1.9-38.5 3.3-76.8 3-115-0.4-38.2-2.7-76.4-7.3-114.2-0.5-3.5 1-6.8 3.5-8.9 68.1-56.1 117.7-132.5 145.9-215.9 32.9-96.9 49.2-242.7 14.4-339.6-18.3-30.6-66.8-20.8-97.4-14.9-42.9 9.9-84.4 26.4-124.7 44.5-60 28-122.7 59-190.1 64-2.6-0.1-6.6 0.5-9.3-1.2-40.6-22-82.7-41.5-125.8-58.3-42.9-16.8-87.2-31.6-131.7-42.8-5.5-1.2-8.9-6.8-7.5-12.1 1.3-5.4 6.7-8.6 12-7.3z"/>
						</g>
						<path id="&lt;Path&gt;" class="s5" d="m2678.6 716.4c107.1 69.8 187.7 189.2 193.7 318.7 0.1 2.9-4.4 3.7-5 0.6-12.6-61.2-36.5-119-71.2-170.7-34.6-50.6-78.2-96.2-128-131.7-10.7-7.1-0.9-23.3 10.5-16.9z"/>
						<path id="&lt;Path&gt;" class="s5" d="m2784.2 814.2c12.5 16.8 24.6 33.8 36.9 50.7l-15-2.7c29-19.8 58.4-38.8 88.2-57.2 45.8-27.1 90.8-55.5 141.9-72.4 31.6-9.5 39.5 3.8 43.1 32.5 2.9 36.1-3 70.8-10.8 105.7-0.3 1.3-1.7 2.1-3 1.8-1.2-0.3-2-1.5-1.9-2.7 1.7-17.3 3.1-34.7 3.5-51.9-0.1-23.5 2.1-52.3-10-71.4 0.2 0.1 0.1 0.1 0.2 0.2 0.1 0-0.1 0-0.2 0-1.1-0.3-2.7-0.2-4.6 0.1-19.9 4-38.4 14.5-57 24.1-60.8 33-119.6 71.3-177.4 109.3-4.9 3.3-11.5 2-14.8-2.8-11.8-17.3-23.8-34.4-35.4-51.8-6.8-10.8 8.4-21.6 16.3-11.5z"/>
						<path id="&lt;Path&gt;" class="s5" d="m2817 866.3c46.7-21.6 94.1-23 142.4 3.6 0 0-62.7-14.7-120.1 29.5 43.7 14.5 69.1 39.8 88.3 68.7 0 0-47.3-37.7-86.5-32.6"/>
						<path id="&lt;Path&gt;" class="s5" d="m2244.7 1439.5l-30.6 108.7c-1 4-7.1 2.7-6.4-1.4 0 0 17.6-111.5 17.6-111.5 2.6-13.7 22.7-9.3 19.4 4.2z"/>
					</g>
					<path id="&lt;Path&gt;" class="s5" d="m2220.3 2745.4c88.4-84.7 152.4-168.9 151.5-295.5 1.1-83.2-8-165.9-11.3-249.5-1.5-33.4-2.2-66.9-2.3-100.4-0.4-33.5 0.7-67.1 7.8-100.3 0.2-1 1.2-1.7 2.2-1.4 0.7 0.1 1.3 0.8 1.4 1.5 5.2 33.5 4.9 66.7 5.6 100 0.7 33.2 2 66.5 4 99.7 3.6 74.7 10.9 150.1 11.6 225.5 1.4 59.6-7.1 120.2-32.7 174.7-27.7 62.1-75.4 116.6-135.9 148.3-1.6 0.8-3.2-1.3-1.9-2.6z"/>
					<path id="&lt;Path&gt;" class="s5" d="m1535.2 2640.1c39.4 27.4 74.2 57.8 114 83.8 98.8 62.9 216.2 98.2 333.5 95.2 23.5-1 46.5-3.2 71-1.6 1 0 1.8 0.9 1.7 1.9 0 0.7-0.4 1.3-1 1.6-22.4 10.6-46.8 13.9-71 15.1-121.4 7.2-242-32.4-344.2-96.4-41-25.5-80.8-55.6-106.3-97.4-0.9-1.4 0.9-3.2 2.3-2.2z"/>
					<path id="&lt;Path&gt;" class="s5" d="m1771.9 1816.4c-33.8 43.9-73.5 82.1-110.5 123.1-54.9 61.6-104.9 127.7-152 195.5-11.5 16.8-23.3 34.1-34.1 51.2-16.2 29.5-29.8 60.8-38.3 93.4-6.8 26.3-11 52.7-17.8 80-0.2 0.9-1.2 1.6-2.2 1.3-0.7-0.2-1.3-0.7-1.4-1.4-5.6-28-2-56.8 4.9-84.1 8.5-34.5 21.5-67.5 38.4-98.7 26.1-41.3 54.2-81.1 83.6-120.1 50.4-66.3 102.9-131.5 161.8-190.6 20.3-19.2 41.6-37.3 65.5-52 1.4-0.9 3.3 1.1 2.1 2.4z"/>
					<path id="&lt;Path&gt;" class="s27" d="m1630.3 2459.9l-0.1 0.7q0.1-0.7 0.1-0.7z"/>
					<g id="&lt;Group&gt;">
						<path id="&lt;Path&gt;" class="s28" d="m1201.1 1470.5c-41.4-124.2 67.6-197.6 161.5-83.2 18.5 26.7-6.9 54.6-37.9 64.6-20.3 6.6-39.6 16.7-54.1 32.4-23.9 26.1-58.9 18.5-69.5-13.8z"/>
						<path id="&lt;Path&gt;" class="s28" d="m1240.9 1283.5c9.7 18.4 2.1 32.8-23.4 46.3-25.4 13.4-44.6 16.6-54.4-1.8-9.7-18.4-3.7-44.1 21.8-57.5 25.4-13.5 46.2-5.4 56 13z"/>
						<path id="&lt;Path&gt;" class="s28" d="m1358.4 1303.6c-2.5 18.9-15.9 25.7-42.1 22.2-26.1-3.4-42.1-11.3-39.6-30.2 2.5-18.9 20.6-34.8 46.8-31.4 26.1 3.5 37.4 20.5 34.9 39.4z"/>
						<path id="&lt;Path&gt;" class="s28" d="m1165.2 1368.8c17.7 7.2 20.8 21.8 10.9 46.3-9.9 24.4-21.5 37.9-39.2 30.7-17.6-7.1-28.5-28.7-18.6-53.1 9.9-24.5 29.3-31.1 46.9-23.9z"/>
					</g>
					<g id="&lt;Group&gt;">
						<g id="&lt;Group&gt;">
							<path id="&lt;Path&gt;" class="s28" d="m2868.8 2019.1c126.3-34.7 193.7 78.1 74.5 165.7-27.7 17.1-54.2-9.8-62.6-41.3-5.4-20.6-14.5-40.5-29.4-55.7-24.8-25.3-15.3-59.9 17.5-68.7z"/>
							<path id="&lt;Path&gt;" class="s28" d="m3053.4 2068.8c-18.8 8.7-32.9 0.3-45-25.8-12-26.1-14.1-45.5 4.8-54.2 18.8-8.7 44.1-1.3 56.2 24.8 12.1 26.2 2.9 46.5-16 55.2z"/>
							<path id="&lt;Path&gt;" class="s28" d="m3027 2185.1c-18.7-3.5-24.8-17.3-19.9-43.2 4.8-25.9 13.5-41.5 32.3-38 18.7 3.5 33.7 22.5 28.8 48.4-4.8 26-22.5 36.3-41.2 32.8z"/>
							<path id="&lt;Path&gt;" class="s28" d="m2972.3 1988.7c-8.1 17.2-22.9 19.6-46.8 8.4-23.9-11.2-36.7-23.5-28.6-40.8 8.1-17.2 30.2-27 54.1-15.7 23.8 11.2 29.4 30.8 21.3 48.1z"/>
						</g>
						<g id="&lt;Group&gt;">
							<path id="&lt;Path&gt;" class="s28" d="m2868.8 2019.1c126.3-34.7 193.7 78.1 74.5 165.7-27.7 17.1-54.2-9.8-62.6-41.3-5.4-20.6-14.5-40.5-29.4-55.7-24.8-25.3-15.3-59.9 17.5-68.7z"/>
							<path id="&lt;Path&gt;" class="s28" d="m3053.4 2068.8c-18.8 8.7-32.9 0.3-45-25.8-12-26.1-14.1-45.5 4.8-54.2 18.8-8.7 44.1-1.3 56.2 24.8 12.1 26.2 2.9 46.5-16 55.2z"/>
							<path id="&lt;Path&gt;" class="s28" d="m3027 2185.1c-18.7-3.5-24.8-17.3-19.9-43.2 4.8-25.9 13.5-41.5 32.3-38 18.7 3.5 33.7 22.5 28.8 48.4-4.8 26-22.5 36.3-41.2 32.8z"/>
							<path id="&lt;Path&gt;" class="s28" d="m2972.3 1988.7c-8.1 17.2-22.9 19.6-46.8 8.4-23.9-11.2-36.7-23.5-28.6-40.8 8.1-17.2 30.2-27 54.1-15.7 23.8 11.2 29.4 30.8 21.3 48.1z"/>
						</g>
					</g>
					<path id="&lt;Path&gt;" class="s5" d="m2285.3 3419.2c-74.2 38.4-163.4 44.7-243 21.1 0 0-15.8-4.7-15.8-4.7-3.6-1.2-2.2-6.9 1.6-5.9 0 0 0.3 0 0.3 0l15.7 3.9c56.9 14.3 118 12.4 174-5.1 19.9-6.2 40.4-14.6 57.9-25.2 10.7-6.2 20 9.5 9.3 15.9z"/>
					<path id="&lt;Path&gt;" class="s5" d="m2147.1 3601.5c12.4-21.5 11.7-48.7 4.5-72.1-2.5-8.4-6.2-16.5-10-24.5-0.7-1.5 0-3.3 1.5-4 1.4-0.7 3.1-0.2 3.9 1.1 18.2 27.3 28.8 61.3 21 94.1-1.3 5.4-2.5 9.6-5.1 14.8-6.3 11.4-22.9 1.5-15.8-9.4z"/>
					<path id="&lt;Path&gt;" class="s5" d="m2296.3 3580.2c6.8-22.4 6.1-48.5-4.3-69.9-3.4-7.5-8.5-14.1-13.8-20.5-1.1-1.3-0.9-3.3 0.4-4.3 1.2-1 2.9-1 4 0.1 24.3 20.9 35.2 53.9 33.1 85.5-0.7 7.9-0.4 23.4-12.6 21.3-5.5-1-8.8-6.9-6.8-12.2z"/>
					<path id="&lt;Path&gt;" class="s5" d="m1659.1 3337.2c-70.9-1.3-140.6 33.6-187.7 85.8l-9.7 10.7c-1.1 1.4-3.1 1.6-4.5 0.4-1.2-1.1-1.3-3-0.3-4.2l9.3-11.4c34.4-42.3 81.4-74.5 133.9-89.9 19.8-5.7 38.9-9.5 60-9.7 5.1 0 9.2 4.1 9.2 9.2 0 5.4-4.8 9.7-10.2 9.1z"/>
				</g>
			</g>
		</g>
	</g>
</svg>